<svg width="47" height="47" viewBox="0 0 47 47" fill="none" xmlns="http://www.w3.org/2000/svg">
<path d="M38.9187 8.8732C42.3434 12.6468 44.5139 17.7595 44.5139 23.2568C44.5138 34.9968 34.9968 44.5138 23.2569 44.5138C11.517 44.5138 2 34.9968 2 23.2569C2 11.517 11.517 2 23.2569 2C26.0477 2 28.6432 2.50355 31.0848 3.48123" stroke="black" stroke-width="3.0748" stroke-miterlimit="10" stroke-linecap="round" stroke-linejoin="round"/>
<path d="M12.9239 33.6103C14.0994 29.3436 18.5942 26.0408 23.2345 26.0408C27.9359 26.0408 32.4724 29.2576 33.5901 33.6103" stroke="black" stroke-width="3.0748" stroke-miterlimit="10" stroke-linecap="round" stroke-linejoin="round"/>
<path d="M12.9702 19.654C12.9702 18.0092 14.3036 16.6758 15.9484 16.6758C17.5932 16.6758 18.9267 18.0092 18.9267 19.654" stroke="black" stroke-width="3.0748" stroke-miterlimit="10" stroke-linecap="round" stroke-linejoin="round"/>
<path d="M27.587 19.654C27.587 18.0092 28.9205 16.6758 30.5653 16.6758C32.2101 16.6758 33.5435 18.0092 33.5435 19.654" stroke="black" stroke-width="3.0748" stroke-miterlimit="10" stroke-linecap="round" stroke-linejoin="round"/>
</svg>
