<svg width="50" height="46" viewBox="0 0 50 46" fill="none" xmlns="http://www.w3.org/2000/svg">
<path d="M23.1128 44.2255C34.773 44.2255 44.2255 34.773 44.2255 23.1128C44.2255 11.4525 34.773 2 23.1128 2C11.4525 2 2 11.4525 2 23.1128C2 34.773 11.4525 44.2255 23.1128 44.2255Z" stroke="black" stroke-width="3.25366" stroke-miterlimit="10" stroke-linecap="round" stroke-linejoin="round"/>
<path d="M16.5783 31.7316H20.0625C22.9279 31.7316 25.7538 32.3987 28.3167 33.6801L29.6472 34.3453" stroke="black" stroke-width="3.25366" stroke-miterlimit="10" stroke-linecap="round" stroke-linejoin="round"/>
<path d="M13.3111 15.9297C15.1156 14.1252 18.0411 14.1252 19.8455 15.9297" stroke="black" stroke-width="3.25366" stroke-miterlimit="10" stroke-linecap="round" stroke-linejoin="round"/>
<path d="M32.9144 14.5763C31.1099 16.3808 28.1844 16.3808 26.38 14.5763" stroke="black" stroke-width="3.25366" stroke-miterlimit="10" stroke-linecap="round" stroke-linejoin="round"/>
<path d="M19.8455 23.108C20.6965 23.108 21.5117 22.3598 21.4724 21.4812C21.4329 20.5998 20.7575 19.8544 19.8455 19.8544C18.9946 19.8544 18.1793 20.6026 18.2187 21.4812C18.2582 22.3626 18.9335 23.108 19.8455 23.108Z" fill="black"/>
<path d="M32.9144 23.108C33.7653 23.108 34.5806 22.3598 34.5412 21.4812C34.5018 20.5998 33.8264 19.8544 32.9144 19.8544C32.0635 19.8544 31.2482 20.6026 31.2876 21.4812C31.3271 22.3626 32.0024 23.108 32.9144 23.108Z" fill="black"/>
<path d="M47.774 9.91296C48.6249 9.91296 49.4401 9.16473 49.4008 8.28613C49.3613 7.40471 48.686 6.6593 47.774 6.6593C46.923 6.6593 46.1078 7.40753 46.1471 8.28613C46.1866 9.16755 46.862 9.91296 47.774 9.91296Z" fill="black"/>
</svg>
