<svg width="102" height="102" viewBox="0 0 102 102" fill="none" xmlns="http://www.w3.org/2000/svg">
<path fill-rule="evenodd" clip-rule="evenodd" d="M63.6985 2.50774L53.958 43.859L76.3098 7.7316C77.0023 6.61271 78.5568 6.43207 79.4871 7.36241L94.6376 22.5128C95.5679 23.4431 95.3873 24.9978 94.2684 25.6901L58.141 48.0422L99.4923 38.3015C100.773 37.9998 102 38.9715 102 40.2872V61.7131C102 63.0289 100.773 64.0004 99.4923 63.6985L58.141 53.958L94.2684 76.3103C95.3873 77.0023 95.5679 78.5568 94.6376 79.4876L79.4871 94.6376C78.5568 95.5679 77.0023 95.3873 76.3098 94.2684L53.958 58.141L63.6985 99.4923C64.0004 100.773 63.0283 102 61.7131 102H40.2871C38.9714 102 37.9998 100.773 38.3015 99.4923L48.0422 58.141L25.69 94.2684C24.9978 95.3873 23.4431 95.5679 22.5127 94.6376L7.36241 79.4871C6.43207 78.5568 6.61271 77.0023 7.7316 76.3098L43.8587 53.958L2.50774 63.6985C1.22709 64.0004 0 63.0289 0 61.7131V40.2871C9.94061e-07 38.9714 1.22709 37.9998 2.50774 38.3015L43.859 48.0422L7.7316 25.6901C6.61271 24.9979 6.43207 23.4431 7.36241 22.5128L22.5127 7.36246C23.4431 6.43212 24.9978 6.61276 25.69 7.73165L48.0422 43.8591L38.3015 2.50774C37.9998 1.22709 38.9714 1.98812e-06 40.2871 1.8731e-06L61.7131 0C63.0289 0 64.0004 1.22709 63.6985 2.50774ZM51 56.8288C54.2191 56.8288 56.8288 54.2191 56.8288 51C56.8288 47.781 54.2191 45.1714 51 45.1714C47.781 45.1714 45.1714 47.781 45.1714 51C45.1714 54.2191 47.781 56.8288 51 56.8288Z" fill="#9CFF8F"/>
</svg>
