<svg width="47" height="47" viewBox="0 0 47 47" fill="none" xmlns="http://www.w3.org/2000/svg">
<g clip-path="url(#clip0_181_6438)">
<path d="M6.88302 6.88302C11.3215 2.44446 17.2229 0 23.5 0C29.7771 0 35.6785 2.44446 40.117 6.88302C44.5556 11.3215 47 17.2229 47 23.5C47 29.7771 44.5556 35.6785 40.117 40.117C35.6785 44.5555 29.7771 47 23.5 47C17.2229 47 11.3215 44.5555 6.88302 40.117C2.44437 35.6785 0 29.7771 0 23.5C0 17.2229 2.44437 11.3215 6.88302 6.88302ZM23.5 44.2024C34.9153 44.2024 44.2024 34.9153 44.2024 23.5C44.2024 12.0847 34.9153 2.7976 23.5 2.7976C12.0847 2.7976 2.7976 12.0847 2.7976 23.5C2.7976 34.9153 12.0847 44.2024 23.5 44.2024Z" fill="black"/>
<path d="M28.5835 17.2942C30.8741 15.0034 34.6014 15.0036 36.892 17.2942C37.4383 17.8404 37.4383 18.7261 36.892 19.2724C36.3456 19.8186 35.4599 19.8186 34.9137 19.2724C33.7137 18.0725 31.7614 18.0726 30.5616 19.2724C30.2884 19.5456 29.9305 19.6822 29.5726 19.6822C29.2146 19.6822 28.8565 19.5456 28.5835 19.2724C28.0373 18.7261 28.0373 17.8405 28.5835 17.2942Z" fill="black"/>
<path d="M10.1083 17.2942C12.3989 15.0036 16.1261 15.0034 18.4167 17.2942C18.963 17.8404 18.963 18.7261 18.4167 19.2724C17.8704 19.8186 16.9846 19.8186 16.4384 19.2724C15.2386 18.0725 13.2863 18.0725 12.0863 19.2724C11.8131 19.5456 11.4552 19.6822 11.0973 19.6822C10.7394 19.6822 10.3813 19.5456 10.1083 19.2724C9.56201 18.7261 9.56201 17.8405 10.1083 17.2942Z" fill="black"/>
<path d="M11.0972 24.5259H35.9028C36.6753 24.5259 37.3016 25.1522 37.3016 25.9247C37.3016 33.5348 31.1102 39.7262 23.5 39.7262C15.8899 39.7262 9.69844 33.5348 9.69844 25.9247C9.69844 25.1521 10.3247 24.5259 11.0972 24.5259ZM23.5 36.9286C29.0939 36.9286 33.7264 32.7333 34.4155 27.3235H12.5844C13.2736 32.7333 17.9061 36.9286 23.5 36.9286Z" fill="black"/>
</g>
<defs>
<clipPath id="clip0_181_6438">
<rect width="47" height="47" fill="white" transform="matrix(-1 0 0 1 47 0)"/>
</clipPath>
</defs>
</svg>
